<svg width="134" height="134" viewBox="0 0 134 134" fill="none" xmlns="http://www.w3.org/2000/svg">
<g filter="url(#filter0_d_249_498)">
<rect x="3" y="3" width="128" height="128" rx="10" fill="white"/>
<path fill-rule="evenodd" clip-rule="evenodd" d="M53.7492 21C47.0518 21 40.9486 23.212 37.3388 25.0201C37.0134 25.1831 36.7085 25.3427 36.425 25.4972C35.8642 25.8028 35.388 26.0881 35.0074 26.3383L39.1148 32.3848L41.0481 33.1545C48.6052 36.9674 58.7394 36.9674 66.2965 33.1545L68.4917 32.0155L72.3753 26.3383C71.8063 25.9589 71.0191 25.4985 70.0507 25.0091C69.9917 24.9792 69.932 24.9493 69.8716 24.9193C66.2773 23.1308 60.3224 21 53.7492 21ZM44.1962 27.8451C42.718 27.5724 41.2656 27.1962 39.8946 26.7647C43.2775 25.2625 48.3188 23.6691 53.7492 23.6691C57.5117 23.6691 61.0691 24.4342 64.0116 25.4029C60.5633 25.8896 56.8835 26.7114 53.3783 27.7254C50.6201 28.5233 47.3961 28.4355 44.1962 27.8451Z" fill="#40A6DD"/>
<path fill-rule="evenodd" clip-rule="evenodd" d="M67.8625 35.3541L67.499 35.5375C59.1855 39.732 48.159 39.732 39.8458 35.5375L39.5001 35.3632C27.0121 49.0665 13.9111 74.7635 53.7492 74.3785C93.5599 73.9937 80.2537 48.5937 67.8625 35.3541ZM55.9752 45.0222H51.4075V47.1576C49.9232 47.1541 48.496 47.6912 47.428 48.6552C46.3602 49.6189 45.7357 50.9336 45.687 52.3206C45.6383 53.7076 46.1692 55.0578 47.1671 56.085C48.1651 57.1122 49.5517 57.7357 51.033 57.8234L51.4075 57.8341H55.9752L56.1807 57.8512C56.4441 57.8958 56.6823 58.0253 56.8538 58.2174C57.0253 58.4093 57.1193 58.6517 57.1193 58.9018C57.1193 59.1519 57.0253 59.3942 56.8538 59.5861C56.6823 59.7782 56.4441 59.9078 56.1807 59.9523L55.9752 59.9694H46.8398V64.24H51.4075V66.3753H55.9752V64.24C57.4595 64.2435 58.8867 63.7063 59.9548 62.7424C61.0226 61.7787 61.647 60.464 61.6957 59.077C61.7444 57.69 61.2135 56.3398 60.2157 55.3126C59.2177 54.2854 57.8311 53.6618 56.3497 53.5742L55.9752 53.5635H51.4075L51.202 53.5464C50.9387 53.5018 50.7005 53.3722 50.529 53.1802C50.3575 52.9883 50.2634 52.7459 50.2634 52.4958C50.2634 52.2457 50.3575 52.0034 50.529 51.8115C50.7005 51.6194 50.9387 51.4898 51.202 51.4453L51.4075 51.4282H60.5429V47.1576H55.9752V45.0222Z" fill="#40A6DD"/>
<path d="M107.164 85.8769C107.956 77.9002 107.957 73.519 107.164 65.8906C99.5351 65.098 95.1544 65.0984 87.1775 65.8906" stroke="#40A6DD" stroke-width="4" stroke-linecap="round" stroke-linejoin="round"/>
<path d="M107.137 65.9922L75.1562 97.9732L63.1347 85.9517L36.0864 113" stroke="#40A6DD" stroke-width="4" stroke-linecap="round" stroke-linejoin="round"/>
</g>
<defs>
<filter id="filter0_d_249_498" x="0" y="0" width="134" height="134" filterUnits="userSpaceOnUse" color-interpolation-filters="sRGB">
<feFlood flood-opacity="0" result="BackgroundImageFix"/>
<feColorMatrix in="SourceAlpha" type="matrix" values="0 0 0 0 0 0 0 0 0 0 0 0 0 0 0 0 0 0 127 0" result="hardAlpha"/>
<feOffset/>
<feGaussianBlur stdDeviation="1.5"/>
<feComposite in2="hardAlpha" operator="out"/>
<feColorMatrix type="matrix" values="0 0 0 0 0 0 0 0 0 0 0 0 0 0 0 0 0 0 0.25 0"/>
<feBlend mode="normal" in2="BackgroundImageFix" result="effect1_dropShadow_249_498"/>
<feBlend mode="normal" in="SourceGraphic" in2="effect1_dropShadow_249_498" result="shape"/>
</filter>
</defs>
</svg>
