<svg width="47" height="47" viewBox="0 0 47 47" fill="none" xmlns="http://www.w3.org/2000/svg">
<g clip-path="url(#clip0_245_197)">
<path d="M12.7666 18.0167H13.1499C14.6258 18.0167 15.8333 19.2505 15.8333 20.7584V34.4667C15.8333 35.9747 14.6258 37.2084 13.1499 37.2084H12.7666C11.2908 37.2084 10.0833 35.9747 10.0833 34.4667V20.7584C10.0833 19.2505 11.2908 18.0167 12.7666 18.0167ZM23.4999 9.79175C24.9758 9.79175 26.1833 11.0255 26.1833 12.5334V34.4667C26.1833 35.9747 24.9758 37.2084 23.4999 37.2084C22.0241 37.2084 20.8166 35.9747 20.8166 34.4667V12.5334C20.8166 11.0255 22.0241 9.79175 23.4999 9.79175ZM34.2333 25.4584C35.7091 25.4584 36.9166 26.6922 36.9166 28.2001V34.4667C36.9166 35.9747 35.7091 37.2084 34.2333 37.2084C32.7574 37.2084 31.5499 35.9747 31.5499 34.4667V28.2001C31.5499 26.6922 32.7574 25.4584 34.2333 25.4584Z" fill="#0C8CE9"/>
</g>
<defs>
<clipPath id="clip0_245_197">
<rect width="46" height="47" fill="white" transform="translate(0.5)"/>
</clipPath>
</defs>
</svg>
