<?xml version="1.0" encoding="utf-8"?>
<!-- Generator: Adobe Illustrator 26.3.1, SVG Export Plug-In . SVG Version: 6.00 Build 0)  -->
<svg version="1.1" id="Layer_1" xmlns="http://www.w3.org/2000/svg" xmlns:xlink="http://www.w3.org/1999/xlink" x="0px" y="0px"
	 viewBox="0 0 27 27" style="enable-background:new 0 0 27 27;" xml:space="preserve">
<style type="text/css">
	.st0{fill:#40A6DD;}
</style>
<path class="st0" d="M1.5,15h9c0.8,0,1.5-0.7,1.5-1.5v-12C12,0.7,11.3,0,10.5,0h-9C0.7,0,0,0.7,0,1.5v12C0,14.3,0.7,15,1.5,15z
	 M1.5,27h9c0.8,0,1.5-0.7,1.5-1.5v-6c0-0.8-0.7-1.5-1.5-1.5h-9C0.7,18,0,18.7,0,19.5v6C0,26.3,0.7,27,1.5,27z M16.5,27h9
	c0.8,0,1.5-0.7,1.5-1.5v-12c0-0.8-0.7-1.5-1.5-1.5h-9c-0.8,0-1.5,0.7-1.5,1.5v12C15,26.3,15.7,27,16.5,27z M15,1.5v6
	C15,8.3,15.7,9,16.5,9h9C26.3,9,27,8.3,27,7.5v-6C27,0.7,26.3,0,25.5,0h-9C15.7,0,15,0.7,15,1.5z"/>
</svg>
