<svg width="27" height="27" viewBox="0 0 27 27" fill="none" xmlns="http://www.w3.org/2000/svg">
<path d="M1.5 15H10.5C11.325 15 12 14.325 12 13.5V1.5C12 0.675 11.325 0 10.5 0H1.5C0.675 0 0 0.675 0 1.5V13.5C0 14.325 0.675 15 1.5 15ZM1.5 27H10.5C11.325 27 12 26.325 12 25.5V19.5C12 18.675 11.325 18 10.5 18H1.5C0.675 18 0 18.675 0 19.5V25.5C0 26.325 0.675 27 1.5 27ZM16.5 27H25.5C26.325 27 27 26.325 27 25.5V13.5C27 12.675 26.325 12 25.5 12H16.5C15.675 12 15 12.675 15 13.5V25.5C15 26.325 15.675 27 16.5 27ZM15 1.5V7.5C15 8.325 15.675 9 16.5 9H25.5C26.325 9 27 8.325 27 7.5V1.5C27 0.675 26.325 0 25.5 0H16.5C15.675 0 15 0.675 15 1.5Z" fill="#40A6DD"/>
</svg>
