<svg width="35" height="39" viewBox="0 0 35 39" fill="none" xmlns="http://www.w3.org/2000/svg">
<path d="M33.7997 19.6704C33.7997 22.8844 32.8437 26.0263 31.0527 28.6988C29.2617 31.3712 26.716 33.4541 23.7376 34.684C20.7592 35.914 17.4819 36.2358 14.3201 35.6088C11.1583 34.9818 8.25392 33.434 5.97437 31.1613C3.69481 28.8886 2.14242 25.993 1.51349 22.8407C0.884561 19.6884 1.20735 16.4209 2.44104 13.4515C3.67472 10.4821 5.7639 7.94406 8.44437 6.15841C11.1248 4.37276 14.2762 3.41968 17.5 3.41968C19.6405 3.41968 21.7601 3.84001 23.7376 4.65669C25.7152 5.47336 27.5121 6.67038 29.0256 8.17939C30.5392 9.68841 31.7398 11.4799 32.559 13.4515C33.3781 15.4231 33.7997 17.5363 33.7997 19.6704ZM28.0618 19.7935C28.0607 17.9679 27.5785 16.1746 26.6635 14.5933C25.7485 13.0119 24.4328 11.698 22.8482 10.7832C21.2636 9.86832 19.4657 9.38463 17.6346 9.38054C15.8035 9.37645 14.0034 9.85212 12.4147 10.7599C11.4504 11.314 10.5803 12.0173 9.83706 12.8433V11.4332C9.83706 11.2176 9.75116 11.0108 9.59827 10.8584C9.44537 10.7059 9.23799 10.6203 9.02177 10.6203C8.80554 10.6203 8.59816 10.7059 8.44527 10.8584C8.29237 11.0108 8.20647 11.2176 8.20647 11.4332V14.8405C8.20702 15.0557 8.29315 15.262 8.44599 15.414C8.59883 15.566 8.80589 15.6513 9.02177 15.6513H12.4353C12.6442 15.6408 12.841 15.5507 12.9851 15.3996C13.1293 15.2485 13.2096 15.048 13.2096 14.8395C13.2096 14.631 13.1293 14.4304 12.9851 14.2794C12.841 14.1283 12.6442 14.0382 12.4353 14.0277H10.9591C11.786 13.0769 12.8084 12.3146 13.9569 11.7926C15.1054 11.2705 16.3531 11.001 17.6153 11.0021C19.3587 11.0025 21.0629 11.5183 22.5124 12.4842C23.9618 13.4502 25.0914 14.8229 25.7584 16.4289C26.4254 18.0348 26.5999 19.8019 26.2596 21.5067C25.9194 23.2115 25.0798 24.7774 23.847 26.0065C22.6142 27.2356 21.0436 28.0726 19.3336 28.4118C17.6237 28.7511 15.8513 28.5772 14.2405 27.9122C12.6297 27.2472 11.2528 26.1209 10.284 24.6759C9.3151 23.2308 8.79776 21.5317 8.79735 19.7935C8.79735 19.5779 8.71146 19.3712 8.55856 19.2188C8.40566 19.0663 8.19829 18.9807 7.98206 18.9807C7.76583 18.9807 7.55846 19.0663 7.40556 19.2188C7.25266 19.3712 7.16677 19.5779 7.16677 19.7935C7.16676 21.1615 7.43702 22.5161 7.96211 23.78C8.4872 25.0438 9.25683 26.1922 10.2271 27.1595C11.1973 28.1268 12.3491 28.8942 13.6168 29.4177C14.8845 29.9412 16.2432 30.2106 17.6153 30.2106C18.9874 30.2106 20.3461 29.9412 21.6138 29.4177C22.8814 28.8942 24.0333 28.1268 25.0035 27.1595C25.9738 26.1922 26.7434 25.0438 27.2685 23.78C27.7936 22.5161 28.0618 21.1615 28.0618 19.7935ZM18.2556 19.5903V14.1057C18.2451 13.8974 18.1547 13.7012 18.0032 13.5575C17.8516 13.4138 17.6505 13.3337 17.4413 13.3337C17.2322 13.3337 17.031 13.4138 16.8795 13.5575C16.7279 13.7012 16.6376 13.8974 16.6271 14.1057V19.9372C16.6268 20.0612 16.6551 20.1836 16.7097 20.2949C16.7643 20.4063 16.8438 20.5037 16.9421 20.5797L20.1065 23.7325C20.1819 23.8093 20.2718 23.8703 20.3711 23.9122C20.4703 23.954 20.5769 23.9759 20.6846 23.9764C20.7924 23.977 20.8992 23.9562 20.9989 23.9153C21.0985 23.8745 21.1891 23.8143 21.2653 23.7384C21.3415 23.6624 21.4018 23.5721 21.4428 23.4728C21.4838 23.3734 21.5046 23.2669 21.504 23.1595C21.5035 23.052 21.4816 22.9458 21.4396 22.8468C21.3976 22.7479 21.3364 22.6582 21.2594 22.583L18.2556 19.5903Z" fill="#0C8CE9"/>
</svg>
