<?xml version="1.0" encoding="utf-8"?>
<!-- Generator: Adobe Illustrator 26.3.1, SVG Export Plug-In . SVG Version: 6.00 Build 0)  -->
<svg version="1.1" id="Layer_1" xmlns="http://www.w3.org/2000/svg" xmlns:xlink="http://www.w3.org/1999/xlink" x="0px" y="0px"
	 viewBox="0 0 24 24" style="enable-background:new 0 0 24 24;" xml:space="preserve">
<style type="text/css">
	.st0{fill:#FFFFFF;}
</style>
<g>
	<defs>
		<rect id="SVGID_1_" width="24" height="24"/>
	</defs>
	<clipPath id="SVGID_00000153669947153391705080000016676549665243777205_">
		<use xlink:href="#SVGID_1_"  style="overflow:visible;"/>
	</clipPath>
</g>
<g>
	<path class="st0" d="M15.8,16.5V21h-12V3h7.5V1.5H3.8C3.4,1.5,3,1.7,2.7,1.9S2.3,2.6,2.3,3v18c0,0.4,0.2,0.8,0.4,1.1
		s0.7,0.4,1.1,0.4h12c0.4,0,0.8-0.2,1.1-0.4s0.4-0.7,0.4-1.1v-4.5H15.8z"/>
	<path class="st0" d="M21.4,4.3l-2.5-2.5c-0.2-0.2-0.5-0.3-0.8-0.3c-0.3,0-0.6,0.1-0.8,0.3L6.8,12.3v4.2h4.1L21.4,6
		c0.2-0.2,0.3-0.5,0.3-0.8C21.7,4.8,21.6,4.5,21.4,4.3L21.4,4.3z M10.3,15h-2v-2l7.1-7.1l2,2L10.3,15z M18.4,6.9l-2-2l1.7-1.7l2,2
		L18.4,6.9z"/>
</g>
</svg>
