<svg width="24" height="24" viewBox="0 0 24 24" fill="none" xmlns="http://www.w3.org/2000/svg">
<g clip-path="url(#clip0_8_1029)">
<path d="M16.5 16.5V21H4.5V3H12V1.5H4.5C4.10218 1.5 3.72064 1.65804 3.43934 1.93934C3.15804 2.22064 3 2.60218 3 3V21C3 21.3978 3.15804 21.7794 3.43934 22.0607C3.72064 22.342 4.10218 22.5 4.5 22.5H16.5C16.8978 22.5 17.2794 22.342 17.5607 22.0607C17.842 21.7794 18 21.3978 18 21V16.5H16.5Z" fill="white"/>
<path d="M22.155 4.31998L19.68 1.84498C19.4557 1.62511 19.1541 1.50195 18.84 1.50195C18.5259 1.50195 18.2243 1.62511 18 1.84498L7.5 12.345V16.5H11.6475L22.1475 5.99998C22.3674 5.77567 22.4905 5.47409 22.4905 5.15998C22.4905 4.84588 22.3674 4.5443 22.1475 4.31998H22.155ZM11.025 15H9V12.975L16.08 5.88748L18.1125 7.91998L11.025 15ZM19.17 6.86248L17.1375 4.82998L18.84 3.12748L20.8725 5.15998L19.17 6.86248Z" fill="white"/>
</g>
<defs>
<clipPath id="clip0_8_1029">
<rect width="24" height="24" fill="white"/>
</clipPath>
</defs>
</svg>
