<svg width="34" height="33" viewBox="0 0 34 33" fill="none" xmlns="http://www.w3.org/2000/svg">
<g clip-path="url(#clip0_245_73)">
<g clip-path="url(#clip1_245_73)">
<path d="M20.2 18.0938C19.175 18.0938 18.6821 18.625 17 18.625C15.3179 18.625 14.8286 18.0938 13.8 18.0938C11.15 18.0938 9 20.0926 9 22.5562V23.4062C9 24.2861 9.76786 25 10.7143 25H23.2857C24.2321 25 25 24.2861 25 23.4062V22.5562C25 20.0926 22.85 18.0938 20.2 18.0938ZM23.2857 23.4062H10.7143V22.5562C10.7143 20.9758 12.1 19.6875 13.8 19.6875C14.3214 19.6875 15.1679 20.2188 17 20.2188C18.8464 20.2188 19.675 19.6875 20.2 19.6875C21.9 19.6875 23.2857 20.9758 23.2857 22.5562V23.4062ZM17 17.5625C19.8393 17.5625 22.1429 15.4209 22.1429 12.7812C22.1429 10.1416 19.8393 8 17 8C14.1607 8 11.8571 10.1416 11.8571 12.7812C11.8571 15.4209 14.1607 17.5625 17 17.5625ZM17 9.59375C18.8893 9.59375 20.4286 11.0248 20.4286 12.7812C20.4286 14.5377 18.8893 15.9688 17 15.9688C15.1107 15.9688 13.5714 14.5377 13.5714 12.7812C13.5714 11.0248 15.1107 9.59375 17 9.59375Z" fill="black"/>
</g>
</g>
<defs>
<clipPath id="clip0_245_73">
<rect width="33" height="33" fill="white" transform="translate(0.5)"/>
</clipPath>
<clipPath id="clip1_245_73">
<rect width="16" height="17" fill="white" transform="translate(9 8)"/>
</clipPath>
</defs>
</svg>
