<svg width="28" height="29" viewBox="0 0 28 29" fill="none" xmlns="http://www.w3.org/2000/svg">
<g clip-path="url(#clip0_245_182)">
<path d="M14 14.5C18.2609 14.5 21.7143 11.2545 21.7143 7.25C21.7143 3.24551 18.2609 0 14 0C9.73906 0 6.28571 3.24551 6.28571 7.25C6.28571 11.2545 9.73906 14.5 14 14.5ZM19.4 16.3125H18.3935C17.0556 16.8902 15.567 17.2188 14 17.2188C12.433 17.2188 10.9504 16.8902 9.60647 16.3125H8.6C4.12812 16.3125 0.5 19.7223 0.5 23.925V26.2812C0.5 27.7822 1.79576 29 3.39286 29H24.6071C26.2042 29 27.5 27.7822 27.5 26.2812V23.925C27.5 19.7223 23.8719 16.3125 19.4 16.3125Z" fill="#0C8CE9"/>
</g>
<defs>
<clipPath id="clip0_245_182">
<rect width="27" height="29" fill="white" transform="translate(0.5)"/>
</clipPath>
</defs>
</svg>
